<svg id="Layer_1" data-name="Layer 1" xmlns="http://www.w3.org/2000/svg" xmlns:xlink="http://www.w3.org/1999/xlink" viewBox="0 0 1761.98 530.37"><defs><style>.cls-1{fill:url(#linear-gradient);}.cls-2{opacity:0.64;fill:url(#linear-gradient-2);}.cls-3{opacity:0.52;fill:url(#pink);}</style><linearGradient id="linear-gradient" x1="170.85" y1="16.46" x2="1932" y2="16.46" gradientUnits="userSpaceOnUse"><stop offset="0" stop-color="#fff"/><stop offset="0" stop-color="#fcf6ff"/><stop offset="0" stop-color="#f3dcff"/><stop offset="0" stop-color="#e5b3ff"/><stop offset="0" stop-color="#d88bff"/><stop offset="0.87" stop-color="#c171ff"/><stop offset="0.99" stop-color="#de3fff"/></linearGradient><linearGradient id="linear-gradient-2" x1="170.46" y1="110.75" x2="1932" y2="110.75" gradientUnits="userSpaceOnUse"><stop offset="0" stop-color="#fff"/><stop offset="0.03" stop-color="#fcf6ff"/><stop offset="0.07" stop-color="#f3dcff"/><stop offset="0.13" stop-color="#e5b3ff"/><stop offset="0.18" stop-color="#d88bff"/><stop offset="0.87" stop-color="#c171ff"/><stop offset="0.99" stop-color="#de3fff"/></linearGradient><linearGradient id="pink" x1="170.02" y1="204.52" x2="1931.7" y2="204.52" gradientUnits="userSpaceOnUse"><stop offset="0" stop-color="#fff"/><stop offset="0.09" stop-color="#fcf6ff"/><stop offset="0.23" stop-color="#f3dcff"/><stop offset="0.41" stop-color="#e5b3ff"/><stop offset="0.57" stop-color="#d88bff"/><stop offset="0.87" stop-color="#c171ff"/><stop offset="0.99" stop-color="#de3fff"/></linearGradient></defs><path class="cls-1" d="M170.85-69.21c.86.64,50.33,21.7,109.86,46.62L389,23l22.18,2.7c12.28,1.41,61.41,7.32,109.18,13.1l87,10.54,110.88,27,110.88,27L937.47,90.19C1033,78.63,1058.93,75,1157.36,59.11c96.72-15.67,112.59-18,117.71-16.83,3.41.77,53.39,14.77,111,31.22L1491,103.3l109.52-39.95c60.22-22,110.71-39.95,111.9-39.95,1.37,0,25.76,3.72,54.25,8.35,127.94,20.81,162.23,26.33,163.76,26.33.86,0,1.54-25.82,1.54-64.22V-70.37H1050.57C519.19-70.37,169.83-69.86,170.85-69.21Z" transform="translate(-170.02 70.37)"/><path class="cls-2" d="M178-52.77c4.77,4.11,54.24,45,109.86,90.81L389,121.41l110,31.21,110,31.09,109.69,48.94c60.39,27,110.37,48.94,111.22,48.94,1,0,50.67-11.95,110.37-26.46l108.84-26.46,110.71-35.84c70.62-23,111.22-35.46,112.59-34.81,1,.64,50.49,28.77,109.86,62.42,107.3,60.89,108.15,61.41,111.73,59,2.05-1.28,51.52-37.25,110.2-80s107.47-77.59,108.32-77.59c1.88.26,215.12,69.37,217.84,70.65.86.39,1.54-28.39,1.54-64.1V63.73L1823.34,46.14c-59.88-9.77-109.86-17.6-111.06-17.6s-51.51,18-111.56,39.82c-81,29.54-110.2,39.69-112.93,39.05-1.88-.52-51.18-14.39-109.18-30.83-58.17-16.57-107.13-30.06-109-30.06S1216.73,54.61,1156,64.38c-97.07,15.67-123.17,19.39-218.53,31l-108.32,13.1-110.88-27-110.88-27L515.27,43.31c-50.67-6.17-99.79-12.08-109.18-13.23L389,28.15,280.2-16C220.49-40.18,171-60.09,170.51-60.09S173.41-56.75,178-52.77Z" transform="translate(-170.02 70.37)"/><path class="cls-3" d="M170.34-49.82c.51,1,49.64,62,109.35,135.52L388.18,219.29l110.88,49.45L609.78,318.2,718.1,388.59c59.7,38.66,109.52,70.65,110.71,71,1.36.39,51.52-17.34,111.73-39.3l109.52-39.82,109.52-53.31c60.22-29.29,110-53.31,110.54-53.31,1.19,0,216,182.15,218.69,185.49.86,1,2,.77,3.59-.52,1.36-1,51-55.1,110.37-120.1s108.15-118.43,108.49-118.69,49.81,23.63,110.2,52.92l109.69,53.44.51-63.84c.17-34.94-.17-64.1-.85-64.61-.86-.52-50.5-17-110.54-36.36l-109.18-35.45-22.18,16.44c-24.39,18.11-184.57,134.88-193.1,140.66l-5.29,3.72-108-61.4c-59.54-33.65-109-61.78-110-62.42-1.37-.65-42.82,12.07-112.59,34.81L1049.21,233.8,940.37,260.27C880.5,274.78,830.86,286.73,830,286.73s-51.17-22.1-112.07-49.2L607.39,188.2,498.55,157.5l-109-30.7L281.91,39.58c-59.37-47.91-108.84-88.11-110-89.27C170-51.36,169.66-51.36,170.34-49.82Z" transform="translate(-170.02 70.37)"/></svg>