<svg id="Layer_1" data-name="Layer 1" xmlns="http://www.w3.org/2000/svg" xmlns:xlink="http://www.w3.org/1999/xlink" viewBox="0 0 1762.19 531.26"><defs><style>.cls-1{fill:url(#linear-gradient);}.cls-2{opacity:0.64;fill:url(#linear-gradient-2);}.cls-3{opacity:0.52;fill:url(#pink);}</style><linearGradient id="linear-gradient" x1="391.98" y1="-625.51" x2="2153.13" y2="-625.51" gradientTransform="translate(2110.64 391.19) rotate(179.93)" gradientUnits="userSpaceOnUse"><stop offset="0" stop-color="#fff"/><stop offset="0" stop-color="#fcf6ff"/><stop offset="0" stop-color="#f3dcff"/><stop offset="0" stop-color="#e5b3ff"/><stop offset="0" stop-color="#d88bff"/><stop offset="0.87" stop-color="#c171ff"/><stop offset="0.99" stop-color="#de3fff"/></linearGradient><linearGradient id="linear-gradient-2" x1="391.59" y1="-531.23" x2="2153.13" y2="-531.23" gradientTransform="translate(2110.64 391.19) rotate(179.93)" gradientUnits="userSpaceOnUse"><stop offset="0" stop-color="#fff"/><stop offset="0.03" stop-color="#fcf6ff"/><stop offset="0.07" stop-color="#f3dcff"/><stop offset="0.13" stop-color="#e5b3ff"/><stop offset="0.18" stop-color="#d88bff"/><stop offset="0.87" stop-color="#c171ff"/><stop offset="0.99" stop-color="#de3fff"/></linearGradient><linearGradient id="pink" x1="391.15" y1="-437.46" x2="2152.83" y2="-437.46" gradientTransform="translate(2110.64 391.19) rotate(179.93)" gradientUnits="userSpaceOnUse"><stop offset="0" stop-color="#fff"/><stop offset="0.09" stop-color="#fcf6ff"/><stop offset="0.23" stop-color="#f3dcff"/><stop offset="0.41" stop-color="#e5b3ff"/><stop offset="0.57" stop-color="#d88bff"/><stop offset="0.87" stop-color="#c171ff"/><stop offset="0.99" stop-color="#de3fff"/></linearGradient></defs><path class="cls-1" d="M1719.47,1102.83c-.86-.64-50.35-21.65-109.92-46.5l-108.37-45.47-22.18-2.68c-12.28-1.39-61.42-7.25-109.19-13l-87-10.44-110.92-26.84L1061,931.08,952.66,944.3C857.15,956,831.22,959.6,732.81,975.64c-96.7,15.78-112.57,18.11-117.68,17-3.42-.76-53.42-14.71-111.09-31.08l-105-29.68L289.62,971.91C229.43,994,179,1012,177.76,1012c-1.36,0-25.76-3.7-54.26-8.29C-4.46,983-38.76,977.55-40.29,977.56c-.85,0-1.51,25.82-1.46,64.22l.07,64.23,881.43-1C1371.13,1104.39,1720.49,1103.48,1719.47,1102.83Z" transform="translate(41.91 -574.75)"/><path class="cls-2" d="M1712.28,1086.4c-4.78-4.1-54.3-44.9-110-90.69l-101.25-83.25L1391,881.37l-110.06-31L1171.19,801.6c-60.42-26.91-110.42-48.81-111.28-48.81-1,0-50.65,12-110.34,26.59L840.77,806l-110.67,36C659.5,865,618.92,877.51,617.55,876.87c-1-.65-50.53-28.72-109.93-62.31-107.37-60.76-108.22-61.27-111.8-58.83C393.77,757,344.34,793,285.71,835.88s-107.38,77.71-108.23,77.71c-1.88-.25-215.19-69.11-217.92-70.39-.86-.39-1.51,28.38-1.47,64.09l.08,64.62L66.85,989.38c59.89,9.69,109.88,17.47,111.07,17.47s51.5-18,111.52-40c81-29.63,110.16-39.82,112.89-39.18,1.87.51,51.19,14.33,109.21,30.71,58.19,16.5,107.16,29.93,109,29.93s52.87-8.15,113.59-18c97.05-15.78,123.14-19.53,218.49-31.2L1061,925.94l110.91,26.85,110.91,26.85,92.13,11.07c50.67,6.1,99.81,12,109.19,13.1l17.06,1.91,108.89,44.06c59.73,24.08,109.23,43.93,109.74,43.93S1716.89,1090.38,1712.28,1086.4Z" transform="translate(41.91 -574.75)"/><path class="cls-3" d="M1720,1083.44c-.52-1-49.72-62-109.51-135.39L1501.81,814.58l-110.94-49.33L1280.1,715.93l-108.4-70.27c-59.75-38.6-109.6-70.52-110.8-70.91-1.36-.38-51.49,17.4-111.69,39.44L839.74,654.13,730.29,707.57C670.1,736.92,620.32,761,619.81,761c-1.2,0-216.18-181.9-218.91-185.23-.85-1-2-.77-3.58.51-1.36,1-50.94,55.17-110.23,120.23s-108,118.56-108.36,118.82-49.84-23.58-110.26-52.8L-41.28,709.22l-.44,63.84c-.13,34.94.25,64.1.93,64.61.85.52,50.51,16.9,110.58,36.23L179,909.23l22.15-16.47c24.38-18.14,184.43-135.09,193-140.88l5.28-3.73,108.05,61.28C567,843,616.52,871.09,617.55,871.73c1.36.64,42.8-12.13,112.54-34.94l110.67-36,108.81-26.58c59.86-14.59,109.48-26.59,110.34-26.59s51.2,22,112.13,49.07l110.6,49.2,108.87,30.57,109,30.58,107.74,87.09c59.42,47.85,108.93,88,110.13,89.15C1720.3,1085,1720.64,1085,1720,1083.44Z" transform="translate(41.91 -574.75)"/></svg>