<svg id="Layer_1" data-name="Layer 1" xmlns="http://www.w3.org/2000/svg" xmlns:xlink="http://www.w3.org/1999/xlink" viewBox="0 0 2039.7 1202.49"><defs><style>.cls-1{fill:url(#linear-gradient);}.cls-2,.cls-5{opacity:0.64;}.cls-2{fill:url(#linear-gradient-2);}.cls-3,.cls-6{opacity:0.52;}.cls-3{fill:url(#pink);}.cls-4{fill:url(#linear-gradient-3);}.cls-5{fill:url(#linear-gradient-4);}.cls-6{fill:url(#pink-2);}</style><linearGradient id="linear-gradient" x1="391.98" y1="-625.51" x2="2153.13" y2="-625.51" gradientTransform="translate(2110.64 391.19) rotate(179.93)" gradientUnits="userSpaceOnUse"><stop offset="0" stop-color="#fff"/><stop offset="0" stop-color="#fcf6ff"/><stop offset="0" stop-color="#f3dcff"/><stop offset="0" stop-color="#e5b3ff"/><stop offset="0" stop-color="#d88bff"/><stop offset="0.87" stop-color="#c171ff"/><stop offset="0.99" stop-color="#de3fff"/></linearGradient><linearGradient id="linear-gradient-2" x1="391.59" y1="-531.23" x2="2153.13" y2="-531.23" gradientTransform="translate(2110.64 391.19) rotate(179.93)" gradientUnits="userSpaceOnUse"><stop offset="0" stop-color="#fff"/><stop offset="0.03" stop-color="#fcf6ff"/><stop offset="0.07" stop-color="#f3dcff"/><stop offset="0.13" stop-color="#e5b3ff"/><stop offset="0.18" stop-color="#d88bff"/><stop offset="0.87" stop-color="#c171ff"/><stop offset="0.99" stop-color="#de3fff"/></linearGradient><linearGradient id="pink" x1="391.15" y1="-437.46" x2="2152.83" y2="-437.46" gradientTransform="translate(2110.64 391.19) rotate(179.93)" gradientUnits="userSpaceOnUse"><stop offset="0" stop-color="#fff"/><stop offset="0.09" stop-color="#fcf6ff"/><stop offset="0.23" stop-color="#f3dcff"/><stop offset="0.41" stop-color="#e5b3ff"/><stop offset="0.57" stop-color="#d88bff"/><stop offset="0.87" stop-color="#c171ff"/><stop offset="0.99" stop-color="#de3fff"/></linearGradient><linearGradient id="linear-gradient-3" x1="116.39" y1="675.74" x2="1877.54" y2="675.74" gradientTransform="translate(552.26 -586.57) rotate(-9.72)" xlink:href="#linear-gradient"/><linearGradient id="linear-gradient-4" x1="116" y1="769.94" x2="1877.54" y2="769.94" gradientTransform="translate(552.26 -586.57) rotate(-9.72)" xlink:href="#linear-gradient-2"/><linearGradient id="pink-2" x1="115.56" y1="863.53" x2="1877.24" y2="863.53" gradientTransform="translate(552.26 -586.57) rotate(-9.72)" xlink:href="#pink"/></defs><path class="cls-1" d="M1719.47,1102.83c-.86-.64-50.35-21.65-109.92-46.5l-108.37-45.47-22.18-2.68c-12.28-1.39-61.42-7.25-109.19-13l-87-10.44-110.92-26.84L1061,931.08,952.66,944.3C857.15,956,831.22,959.6,732.81,975.64c-96.7,15.78-112.57,18.11-117.68,17-3.42-.76-53.42-14.71-111.09-31.08l-105-29.68L289.62,971.91C229.43,994,179,1012,177.76,1012c-1.36,0-25.76-3.7-54.26-8.29C-4.46,983-38.76,977.55-40.29,977.56c-.85,0-1.51,25.82-1.46,64.22l.07,64.23,881.43-1C1371.13,1104.39,1720.49,1103.48,1719.47,1102.83Z" transform="translate(41.91 96.48)"/><path class="cls-2" d="M1712.28,1086.4c-4.78-4.1-54.3-44.9-110-90.69l-101.25-83.25L1391,881.37l-110.06-31L1171.19,801.6c-60.42-26.91-110.42-48.81-111.28-48.81-1,0-50.65,12-110.34,26.59L840.77,806l-110.67,36C659.5,865,618.92,877.51,617.55,876.87c-1-.65-50.53-28.72-109.93-62.31-107.37-60.76-108.22-61.27-111.8-58.83C393.77,757,344.34,793,285.71,835.88s-107.38,77.71-108.23,77.71c-1.88-.25-215.19-69.11-217.92-70.39-.86-.39-1.51,28.38-1.47,64.09l.08,64.62L66.85,989.38c59.89,9.69,109.88,17.47,111.07,17.47s51.5-18,111.52-40c81-29.63,110.16-39.82,112.89-39.18,1.87.51,51.19,14.33,109.21,30.71,58.19,16.5,107.16,29.93,109,29.93s52.87-8.15,113.59-18c97.05-15.78,123.14-19.53,218.49-31.2L1061,925.94l110.91,26.85,110.91,26.85,92.13,11.07c50.67,6.1,99.81,12,109.19,13.1l17.06,1.91,108.89,44.06c59.73,24.08,109.23,43.93,109.74,43.93S1716.89,1090.38,1712.28,1086.4Z" transform="translate(41.91 96.48)"/><path class="cls-3" d="M1720,1083.44c-.52-1-49.72-62-109.51-135.39L1501.81,814.58l-110.94-49.33L1280.1,715.93l-108.4-70.27c-59.75-38.6-109.6-70.52-110.8-70.91-1.36-.38-51.49,17.4-111.69,39.44L839.74,654.13,730.29,707.57C670.1,736.92,620.32,761,619.81,761c-1.2,0-216.18-181.9-218.91-185.23-.85-1-2-.77-3.58.51-1.36,1-50.94,55.17-110.23,120.23s-108,118.56-108.36,118.82-49.84-23.58-110.26-52.8L-41.28,709.22l-.44,63.84c-.13,34.94.25,64.1.93,64.61.85.52,50.51,16.9,110.58,36.23L179,909.23l22.15-16.47c24.38-18.14,184.43-135.09,193-140.88l5.28-3.73,108.05,61.28C567,843,616.52,871.09,617.55,871.73c1.36.64,42.8-12.13,112.54-34.94l110.67-36,108.81-26.58c59.86-14.59,109.48-26.59,110.34-26.59s51.2,22,112.13,49.07l110.6,49.2,108.87,30.57,109,30.58,107.74,87.09c59.42,47.85,108.93,88,110.13,89.15C1720.3,1085,1720.64,1085,1720,1083.44Z" transform="translate(41.91 96.48)"/><path class="cls-4" d="M1599.63-50.34q-48.06.8-96.32-2.46-7.27-.5-14.6-1-12.7.08-25.4.21c-83.28.79-166.08,2-248.72-10-12.78-1.86-23.8-13.08-30.48-23.44a40.08,40.08,0,0,1-4.45-9.44C920.17-51.83,765.84-25,766.59-24.71c.95.49,53.27,12.9,116.15,27.41L997.21,29.36l22.31-1.08c12.35-.68,61.77-3.16,109.83-5.52l87.52-4.31,113.85,7.87,113.84,7.87L1549.12,3C1617-17.28,1648.45-26.92,1698-43.5,1665.18-45.61,1632.41-48,1599.63-50.34Z" transform="translate(41.91 96.48)"/><path class="cls-5" d="M1977.89-15.15c-10.27,0-20.54-.6-30.76-1.51-39.64-3.54-78.66-11.39-118-17-39.08-4.84-78.7-6.57-118-9C1654.3-23.48,1623.49-13.91,1550,8.05l-104.56,31.2-113.84-7.87-113.85-7.86-92.68,4.53c-51,2.48-100.4,4.95-109.84,5.39l-17.14,1L883.35,9.25c-62.93-13.73-115.05-25-115.56-24.91s3.43,2.8,8.64,5.95c5.4,3.24,61.06,35.15,123.61,71l113.78,65.09,113.72,12.19,113.7,12.07,116.38,29.72c64.07,16.39,117,29.6,117.88,29.46,1-.18,47.92-20.33,104.32-44.72l102.81-44.45,103.07-54c65.73-34.59,103.64-53.72,105.09-53.32,1,.4,40.64,14.77,92.54,33.5C1981.47,26.14,1979.7,5.49,1977.89-15.15Z" transform="translate(41.91 96.48)"/><path class="cls-6" d="M1990.64,121.31c-2.53-23.2-4.76-46.44-6.87-69.69C1932,33,1892.62,18.73,1891.66,18.34c-1.45-.41-40.16,19.13-105.09,53.31l-103.07,54-102.81,44.46c-56.57,24.41-103.48,44.57-104.32,44.71s-54.17-13.14-118.77-29.57l-117.28-30-112.46-11.89-112.62-11.86L894.42,63.78C827.82,26.58,772.27-4.7,770.9-5.64c-2.14-1.33-2.47-1.27-1.54.14.68.92,59.4,52.77,130.66,115.11L1029.51,223l117.64,30L1264.62,283l118.65,51.09c65.38,28,119.87,51.15,121.11,51.33,1.41.15,47.86-25.79,103.5-57.61l101.22-57.74,99-71c54.41-39,99.45-71.12,100-71.2s41.4,23.88,89.79,52.41Q1993.86,150.85,1990.64,121.31Z" transform="translate(41.91 96.48)"/></svg>