<svg id="visual" viewBox="0 0 900 600" width="900" height="600" xmlns="http://www.w3.org/2000/svg" xmlns:xlink="http://www.w3.org/1999/xlink" version="1.1"><path d="M0 217L12.5 216C25 215 50 213 75 217C100 221 125 231 150 223C175 215 200 189 225 206C250 223 275 283 300 317C325 351 350 359 375 328C400 297 425 227 450 196C475 165 500 173 525 191C550 209 575 237 600 233C625 229 650 193 675 181C700 169 725 181 750 188C775 195 800 197 825 201C850 205 875 211 887.5 214L900 217L900 0L887.5 0C875 0 850 0 825 0C800 0 775 0 750 0C725 0 700 0 675 0C650 0 625 0 600 0C575 0 550 0 525 0C500 0 475 0 450 0C425 0 400 0 375 0C350 0 325 0 300 0C275 0 250 0 225 0C200 0 175 0 150 0C125 0 100 0 75 0C50 0 25 0 12.5 0L0 0Z" fill="#ffffff"></path><path d="M0 265L12.5 278C25 291 50 317 75 333C100 349 125 355 150 350C175 345 200 329 225 342C250 355 275 397 300 419C325 441 350 443 375 402C400 361 425 277 450 246C475 215 500 237 525 255C550 273 575 287 600 278C625 269 650 237 675 229C700 221 725 237 750 252C775 267 800 281 825 300C850 319 875 343 887.5 355L900 367L900 215L887.5 212C875 209 850 203 825 199C800 195 775 193 750 186C725 179 700 167 675 179C650 191 625 227 600 231C575 235 550 207 525 189C500 171 475 163 450 194C425 225 400 295 375 326C350 357 325 349 300 315C275 281 250 221 225 204C200 187 175 213 150 221C125 229 100 219 75 215C50 211 25 213 12.5 214L0 215Z" fill="#f4f8ff"></path><path d="M0 379L12.5 393C25 407 50 435 75 448C100 461 125 459 150 461C175 463 200 469 225 474C250 479 275 483 300 488C325 493 350 499 375 468C400 437 425 369 450 349C475 329 500 357 525 380C550 403 575 421 600 410C625 399 650 359 675 338C700 317 725 315 750 320C775 325 800 337 825 375C850 413 875 477 887.5 509L900 541L900 365L887.5 353C875 341 850 317 825 298C800 279 775 265 750 250C725 235 700 219 675 227C650 235 625 267 600 276C575 285 550 271 525 253C500 235 475 213 450 244C425 275 400 359 375 400C350 441 325 439 300 417C275 395 250 353 225 340C200 327 175 343 150 348C125 353 100 347 75 331C50 315 25 289 12.5 276L0 263Z" fill="#eaf2ff"></path><path d="M0 601L12.5 601C25 601 50 601 75 601C100 601 125 601 150 601C175 601 200 601 225 601C250 601 275 601 300 601C325 601 350 601 375 601C400 601 425 601 450 601C475 601 500 601 525 601C550 601 575 601 600 601C625 601 650 601 675 601C700 601 725 601 750 601C775 601 800 601 825 601C850 601 875 601 887.5 601L900 601L900 539L887.5 507C875 475 850 411 825 373C800 335 775 323 750 318C725 313 700 315 675 336C650 357 625 397 600 408C575 419 550 401 525 378C500 355 475 327 450 347C425 367 400 435 375 466C350 497 325 491 300 486C275 481 250 477 225 472C200 467 175 461 150 459C125 457 100 459 75 446C50 433 25 405 12.5 391L0 377Z" fill="#dfecff"></path></svg>