<svg id="visual" viewBox="0 0 900 600" width="900" height="600" xmlns="http://www.w3.org/2000/svg" xmlns:xlink="http://www.w3.org/1999/xlink" version="1.1"><rect width="900" height="600" fill="#ffffff"></rect><g><g transform="translate(255 587)"><path d="M0 -112L97 -56L97 56L0 112L-97 56L-97 -56Z" fill="#b4e7ff"></path></g><g transform="translate(734 534)"><path d="M0 -110L95.3 -55L95.3 55L0 110L-95.3 55L-95.3 -55Z" fill="#b4e7ff"></path></g><g transform="translate(495 71)"><path d="M0 -81L70.1 -40.5L70.1 40.5L0 81L-70.1 40.5L-70.1 -40.5Z" fill="#b4e7ff"></path></g><g transform="translate(732 53)"><path d="M0 -101L87.5 -50.5L87.5 50.5L0 101L-87.5 50.5L-87.5 -50.5Z" fill="#b4e7ff"></path></g></g></svg>