<svg id="Layer_1" data-name="Layer 1" xmlns="http://www.w3.org/2000/svg" xmlns:xlink="http://www.w3.org/1999/xlink" viewBox="0 0 959.09 1027.06"><defs><style>.cls-1{fill:url(#New_Gradient_Swatch);}.cls-2{fill:url(#New_Gradient_Swatch-2);}.cls-3{fill:url(#New_Gradient_Swatch-3);}</style><linearGradient id="New_Gradient_Swatch" x1="389.03" y1="957.76" x2="754.06" y2="1322.79" gradientUnits="userSpaceOnUse"><stop offset="0" stop-color="#cae0f4" stop-opacity="0"/><stop offset="0.4" stop-color="#cce0f4"/><stop offset="0.61" stop-color="#9ad1f5" stop-opacity="0.9"/><stop offset="0.69" stop-color="#84cffb" stop-opacity="0.96"/><stop offset="0.77" stop-color="#74ceff"/><stop offset="0.9" stop-color="#3fb6ff"/><stop offset="1" stop-color="#4fbdff"/></linearGradient><linearGradient id="New_Gradient_Swatch-2" x1="313.92" y1="668.9" x2="-51.16" y2="1033.98" xlink:href="#New_Gradient_Swatch"/><linearGradient id="New_Gradient_Swatch-3" x1="389" y1="777.2" x2="754.07" y2="412.13" xlink:href="#New_Gradient_Swatch"/></defs><path class="cls-1" d="M468.62,899.62a51.17,51.17,0,0,0-44.82,26.1L318.28,1116.36a49.32,49.32,0,0,0,0,47.86L423.8,1354.84A51.19,51.19,0,0,0,468.62,1381H674.43a51.15,51.15,0,0,0,44.82-26.16L824.8,1164.22a49.38,49.38,0,0,0,0-47.92L719.25,925.68a51.12,51.12,0,0,0-44.82-26.13l-205.81.07Zm196,364.92A41.33,41.33,0,0,1,629,1284.83H514.06a41.44,41.44,0,0,1-35.67-20.26l-61-104a39.77,39.77,0,0,1,0-40.48l61-104a41.4,41.4,0,0,1,35.67-20.22H629a41.28,41.28,0,0,1,35.67,20.26l61,104a39.8,39.8,0,0,1,0,40.42Z" transform="translate(128.09 -353.94)"/><path class="cls-2" d="M279.15,636.88a51.19,51.19,0,0,0-44.83-26.17H28.45a51.11,51.11,0,0,0-44.82,26.17L-121.89,827.52a49.32,49.32,0,0,0,0,47.86L-16.37,1066a51.16,51.16,0,0,0,44.82,26.13H234.32A51.3,51.3,0,0,0,279.15,1066L384.66,875.38a49.26,49.26,0,0,0,0-47.86Z" transform="translate(128.09 -353.94)"/><path class="cls-3" d="M674.43,835.42a51.15,51.15,0,0,0,44.82-26.16L824.8,618.61a49.4,49.4,0,0,0,0-47.93L719.25,380.07a51.09,51.09,0,0,0-44.82-26.13H468.62a51.16,51.16,0,0,0-44.82,26.13L318.28,570.72a49.32,49.32,0,0,0,0,47.86L423.8,809.26a51.19,51.19,0,0,0,44.82,26.16Z" transform="translate(128.09 -353.94)"/></svg>