<?xml version="1.0" standalone="no"?>
<!DOCTYPE svg PUBLIC "-//W3C//DTD SVG 20010904//EN"
 "http://www.w3.org/TR/2001/REC-SVG-20010904/DTD/svg10.dtd">
<svg version="1.0" xmlns="http://www.w3.org/2000/svg"
 width="1034.000000pt" height="1280.000000pt" viewBox="0 0 1034.000000 1280.000000"
 preserveAspectRatio="xMidYMid meet">
<metadata>
Created by potrace 1.15, written by Peter Selinger 2001-2017
</metadata>
<g transform="translate(0.000000,1280.000000) scale(0.100000,-0.100000)"
fill="#000000" stroke="none">
<path d="M3230 11693 l-645 -1103 -647 -761 c-356 -418 -649 -768 -652 -777
-14 -45 -1265 -4110 -1271 -4127 -5 -15 -4 -17 3 -5 8 12 1014 2157 1229 2621
l44 96 647 484 647 484 645 758 c354 416 649 756 655 753 6 -2 298 -188 648
-412 l637 -409 646 -552 646 -553 640 958 c352 526 643 961 647 965 4 4 297
-549 651 -1230 354 -681 644 -1239 646 -1241 1 -2 293 245 648 548 l646 552 0
991 c0 603 -4 987 -9 981 -5 -5 -294 -373 -641 -819 -347 -445 -634 -811 -638
-813 -4 -1 -33 71 -64 160 -31 90 -133 384 -226 653 -94 270 -353 1019 -577
1665 -224 646 -413 1189 -420 1205 l-13 30 -19 -45 c-11 -25 -296 -664 -633
-1420 -337 -756 -618 -1388 -625 -1403 -12 -28 -19 -20 -658 800 l-647 830
-607 584 c-333 321 -625 600 -647 620 l-41 36 -645 -1104z"/>
<path d="M3229 9275 l-644 -757 -646 -483 -645 -482 -101 -219 c-418 -906
-1183 -2577 -1181 -2579 2 -1 291 305 642 681 583 623 643 685 685 698 93 30
1089 349 1165 373 69 22 166 80 715 432 350 224 642 411 649 415 6 4 110 -24
230 -63 119 -38 413 -133 652 -209 l435 -140 632 -271 c348 -149 637 -271 642
-271 6 0 299 216 652 480 l643 480 40 -38 c94 -88 1107 -1061 1177 -1129 l76
-75 639 273 c351 150 642 275 647 279 4 3 6 451 5 994 l-3 988 -639 -546
c-351 -300 -642 -546 -646 -546 -4 0 -295 553 -646 1229 -351 676 -643 1231
-649 1232 -5 1 -296 -427 -647 -952 -352 -525 -642 -955 -646 -956 -4 -2 -298
246 -654 550 l-646 552 -632 405 c-348 223 -638 406 -645 408 -7 2 -303 -337
-656 -753z"/>
<path d="M3223 6856 c-622 -399 -645 -413 -745 -444 -57 -18 -346 -110 -643
-205 l-540 -173 -642 -710 c-353 -390 -642 -712 -642 -716 -1 -5 2323 -8 5164
-8 l5165 0 0 991 c0 939 -1 990 -17 985 -10 -3 -301 -127 -647 -275 l-629
-269 -644 620 c-594 572 -647 620 -665 609 -11 -7 -280 -207 -597 -445 -317
-237 -599 -448 -628 -469 l-52 -38 -648 277 c-356 152 -659 280 -673 284 -14
4 -266 85 -560 180 -294 94 -569 182 -610 196 -41 13 -82 24 -90 23 -8 0 -304
-186 -657 -413z"/>
<path d="M16 4531 c5 -5 295 -169 644 -363 l635 -355 130 -21 c72 -11 360 -57
640 -102 l510 -82 650 -210 650 -210 635 102 c560 90 712 118 1289 242 567
122 660 140 690 131 20 -6 313 -115 651 -243 l615 -232 642 311 c353 171 649
311 656 311 8 0 151 -29 318 -65 750 -162 951 -205 960 -205 5 0 9 201 9 500
l0 500 -5167 0 c-3115 0 -5163 -4 -5157 -9z"/>
<path d="M58 4403 c28 -32 318 -350 644 -707 l593 -649 645 -243 645 -242 643
-381 c354 -210 647 -381 652 -381 6 0 297 93 647 206 l638 206 649 279 c414
179 652 276 660 271 6 -5 296 -224 644 -486 629 -474 634 -478 655 -459 12 10
302 290 646 623 344 333 630 604 635 604 11 -2 1261 -540 1277 -550 5 -3 9
221 9 499 l0 503 -637 137 c-351 76 -644 137 -651 137 -7 0 -302 -140 -654
-310 -475 -230 -646 -309 -662 -304 -11 4 -300 112 -640 240 -341 129 -628
234 -639 234 -11 0 -310 -63 -666 -139 -569 -122 -722 -151 -1281 -241 l-635
-102 -650 210 -650 210 -540 87 c-297 48 -585 94 -640 103 l-100 15 -638 344
c-350 188 -640 343 -643 343 -3 0 17 -26 44 -57z"/>
<path d="M13 4380 c3 -8 291 -483 641 -1055 l636 -1040 650 -385 649 -385 635
-548 c350 -301 642 -550 649 -553 8 -3 302 135 655 306 l642 310 642 415 c353
228 645 415 648 415 7 0 1266 -1418 1282 -1444 5 -8 12 -6 21 4 8 8 299 429
647 935 348 506 634 922 636 924 2 2 292 -184 646 -412 l643 -416 3 497 c1
272 -1 499 -5 503 -5 4 -296 132 -648 283 l-640 276 -130 -128 c-143 -141
-1082 -1050 -1132 -1095 l-31 -29 -633 478 c-349 262 -639 481 -645 486 -8 5
-251 -94 -660 -271 l-649 -279 -638 -206 c-351 -113 -642 -206 -647 -206 -5 0
-300 172 -657 383 l-648 384 -638 239 -639 239 -631 679 c-348 373 -638 686
-645 695 -11 13 -13 13 -9 1z"/>
</g>
</svg>
