<svg id="Layer_1" data-name="Layer 1" xmlns="http://www.w3.org/2000/svg" xmlns:xlink="http://www.w3.org/1999/xlink" viewBox="0 0 1185.69 1249.14"><defs><style>.cls-1{fill:url(#pink);}.cls-2{stroke-miterlimit:10;stroke-width:2px;stroke:url(#pink-2);}</style><linearGradient id="pink" x1="755.1" y1="683.6" x2="1939" y2="683.6" gradientUnits="userSpaceOnUse"><stop offset="0" stop-color="#fff"/><stop offset="0.09" stop-color="#fcf6ff"/><stop offset="0.23" stop-color="#f3dcff"/><stop offset="0.41" stop-color="#e5b3ff"/><stop offset="0.57" stop-color="#d88bff"/><stop offset="0.87" stop-color="#c171ff"/><stop offset="0.99" stop-color="#de3fff"/></linearGradient><linearGradient id="pink-2" x1="754.11" y1="831.15" x2="1939.8" y2="831.15" xlink:href="#pink"/></defs><path class="cls-1" d="M1124,397.34l-73.94,111.24-74.16,76.75c-40.81,42.15-74.39,77.45-74.74,78.36-1.6,4.54-145,414.5-145.69,416.22-.57,1.51-.46,1.71.34.5S872,862.87,896.68,816.08l5-9.68,74.17-48.82,74.16-48.81L1124,632.32c40.58-42,74.39-76.24,75.08-75.94s34.16,19,74.28,41.55l73,41.25,74.05,55.67,74,55.77L1567.83,654c40.35-53,73.71-96.92,74.17-97.32s34,55.36,74.62,124,73.82,125,74.05,125.16,33.59-24.71,74.28-55.27L1939,695V595c0-60.81-.46-99.54-1-98.94s-33.7,37.62-73.48,82.6-72.67,81.79-73.13,82-3.78-7.16-7.34-16.13-15.24-38.73-25.9-65.86S1717.65,475.9,1692,410.75s-47.35-119.91-48.15-121.52l-1.49-3-2.18,4.54c-1.26,2.52-33.93,67-72.56,143.21s-70.84,140-71.64,141.49c-1.38,2.83-2.18,2-75.43-80.68l-74.16-83.7-69.58-58.9c-38.17-32.37-71.64-60.51-74.16-62.53l-4.7-3.63Z" transform="translate(-754.11 -286)"/><path class="cls-2" d="M1123.88,641.2l-73.83,76.34-74,48.72-73.93,48.61L890.49,837c-47.91,91.37-135.6,259.9-135.38,260.1s33.36-30.76,73.6-68.68c66.82-62.83,73.7-69.08,78.52-70.39,10.66-3,124.83-35.2,133.54-37.62,7.91-2.22,19-8.07,82-43.57,40.12-22.59,73.59-41.45,74.39-41.85s12.61,2.42,26.37,6.35,47.34,13.41,74.74,21.08l49.86,14.12,72.44,27.33c39.9,15,73,27.33,73.6,27.33s34.27-21.79,74.73-48.41l73.71-48.41,4.59,3.83c10.77,8.88,126.89,107,134.91,113.87l8.72,7.56L1864,932.06c40.24-15.13,73.59-27.74,74.17-28.14s.69-45.49.57-100.25l-.34-99.64-73.25,55.07c-40.24,30.25-73.59,55.06-74,55.06s-33.82-55.77-74.05-123.95-73.71-124.14-74.4-124.25-33.93,43.07-74.16,96-73.59,96.31-74,96.41-34.16-24.81-75-55.47l-74-55.67L1273,606.41c-39.89-22.49-73.14-40.95-73.94-41.15S1164.34,599.25,1123.88,641.2Z" transform="translate(-754.11 -286)"/><path d="M1123.19,885.16c-71.3,40.24-73.94,41.65-85.4,44.78-6.53,1.81-39.66,11.09-73.71,20.67l-61.9,17.45-73.59,71.61C788.13,1079,755,1111.47,755,1111.88s266.28.8,591.94.8H1939v-99.94c0-94.7-.11-99.85-2-99.34-1.14.3-34.5,12.81-74.16,27.73l-72.1,27.13L1717,905.73c-68.09-57.68-74.16-62.52-76.22-61.41-1.26.7-32.1,20.87-68.44,44.87s-68.66,45.19-72,47.3l-6,3.84-74.28-27.94c-40.81-15.33-75.54-28.24-77.15-28.64s-30.49-8.57-64.19-18.15-65.23-18.36-69.92-19.77-9.4-2.42-10.32-2.32S1163.65,862.27,1123.19,885.16Z" transform="translate(-754.11 -286)"/><path d="M755.57,1119.64c.58.51,33.82,17,73.82,36.61l72.79,35.8,14.91,2.12c8.25,1.11,41.26,5.75,73.36,10.29l58.46,8.27,74.51,21.18,74.51,21.17,72.78-10.28c64.2-9.08,81.62-11.9,147.76-24.41,65-12.3,75.66-14.12,79.09-13.21,2.3.61,35.88,11.6,74.63,24.51l70.49,23.39,73.6-31.36c40.46-17.25,74.39-31.37,75.19-31.37s17.31,2.93,36.45,6.56c86,16.34,109,20.67,110,20.67.57,0,1-20.27,1-50.42v-50.43H1346.71C989.65,1118.73,754.89,1119.14,755.57,1119.64Z" transform="translate(-754.11 -286)"/><path d="M760.39,1132.55c3.21,3.23,36.45,35.3,73.82,71.3l68,65.45,73.94,24.51,73.93,24.41,73.71,38.42c40.58,21.18,74.17,38.43,74.74,38.43s34-9.38,74.16-20.78l73.14-20.77,74.39-28.14c47.46-18.05,74.74-27.84,75.66-27.33.68.5,33.93,22.59,73.82,49,72.1,47.81,72.67,48.21,75.08,46.29,1.37-1,34.62-29.24,74-62.83s72.21-60.91,72.79-60.91c1.26.2,144.54,54.46,146.38,55.47.57.3,1-22.29,1-50.33V1224l-73-13.81c-40.23-7.67-73.82-13.82-74.62-13.82s-34.62,14.12-75,31.26c-54.45,23.2-74.05,31.17-75.88,30.66-1.26-.4-34.39-11.29-73.37-24.2s-72-23.6-73.24-23.6-35.54,6.35-76.35,14c-65.22,12.3-82.76,15.23-146.84,24.3l-72.78,10.29-74.51-21.18-74.51-21.18L987,1208c-34-4.84-67.06-9.48-73.36-10.39l-11.47-1.51-73.13-34.7c-40.12-19-73.36-34.59-73.71-34.59S757.29,1129.42,760.39,1132.55Z" transform="translate(-754.11 -286)"/><path d="M755.23,1134.87c.34.81,33.36,48.71,73.48,106.4l72.9,104.88L976.12,1385l74.39,38.83,72.79,55.27c40.12,30.35,73.59,55.46,74.4,55.77s34.61-13.62,75.08-30.86l73.59-31.27,73.59-41.85c40.47-23,73.94-41.85,74.28-41.85.8,0,145.12,143,147,145.63.58.8,1.38.6,2.41-.41.92-.8,34.28-43.26,74.17-94.29s72.67-93,72.9-93.19,33.47,18.56,74,41.55l73.71,42,.34-50.12c.12-27.43-.11-50.32-.57-50.73s-33.93-13.31-74.28-28.54L1790.56,1273,1775.65,1286c-16.39,14.22-124,105.89-129.76,110.43l-3.55,2.92-72.56-48.2c-40-26.43-73.25-48.51-73.93-49-.92-.5-28.78,9.48-75.66,27.33l-74.39,28.14-73.14,20.78c-40.23,11.39-73.59,20.77-74.16,20.77s-34.39-17.35-75.31-38.63l-74.28-38.72-73.14-24.11-73.24-24.1-72.33-68.48c-39.89-37.62-73.14-69.18-73.94-70.09C755,1133.66,754.77,1133.66,755.23,1134.87Z" transform="translate(-754.11 -286)"/></svg>